<svg width="40" height="40" viewBox="0 0 40 40" fill="none" xmlns="http://www.w3.org/2000/svg">
<path d="M20 39.9854C31.0457 39.9854 40 31.0344 40 19.9928C40 8.951 31.0457 0 20 0C8.95433 0 0 8.951 0 19.9928C0 31.0344 8.95433 39.9854 20 39.9854Z" fill="#1877F1"/>
<path d="M23.2917 39.7188C23.2917 35.5454 23.2917 30.5555 23.2917 26.3821C23.2917 26.1738 23.2584 25.9656 23.3917 25.7822C24.6084 25.7656 25.8167 25.724 27.0334 25.7407C27.5667 25.749 27.8751 25.6157 27.9501 25.0326C28.1417 23.5914 28.3584 22.1586 28.5917 20.7175C28.6834 20.1427 28.5417 19.9177 27.9167 19.9427C26.6001 19.9844 25.4667 19.9761 23.9667 19.9761C23.3001 19.9761 23.1417 19.7762 23.1667 19.1513C23.2167 18.1517 23.1667 17.1437 23.1834 16.1358C23.2167 14.3364 24.2584 13.2368 26.0751 13.1202C26.8001 13.0702 27.5334 13.0786 28.2584 13.1119C28.8167 13.1369 28.9751 12.9203 28.9667 12.3872C28.9334 11.2126 28.9584 10.0297 28.9584 8.85507C28.9584 8.53024 28.9501 8.19702 28.5251 8.15537C26.2501 7.92212 23.9667 7.54726 21.7167 8.25533C19.1084 9.07174 17.6834 10.9293 17.1417 13.5451C17.0751 13.8866 16.9251 14.5114 16.9334 15.3944C16.9417 16.0942 16.9667 19.9344 16.7334 19.9344C15.3834 19.9427 14.0251 19.9844 12.6751 19.9594C12.0834 19.9427 11.9001 20.1177 11.9167 20.7175C11.9584 22.1419 11.9501 23.5581 11.9167 24.9826C11.9001 25.5657 12.0751 25.7656 12.6751 25.7572C14.0251 25.7323 15.3834 25.7739 16.7334 25.7906C16.8334 25.9406 16.8334 26.1155 16.8334 26.2904C16.8334 30.5306 16.8334 35.5037 16.8334 39.7438C18.5584 40.0771 21.3501 40.1021 23.2917 39.7188Z" fill="white"/>
</svg>
