<svg width="40" height="40" viewBox="0 0 40 40" fill="none" xmlns="http://www.w3.org/2000/svg">
<path d="M20 40C31.0457 40 40 31.0457 40 20C40 8.95433 31.0457 0 20 0C8.95433 0 0 8.95433 0 20C0 31.0457 8.95433 40 20 40Z" fill="#F5F5F5"/>
<g clip-path="url(#clip0_221:24)">
<path d="M27.1597 17.1891H23.9496C23.479 17.1891 23.1092 17.5776 23.1092 18.0721C23.1092 18.5666 23.479 18.9552 23.9496 18.9552H26.3193V29.2338H13.6807V18.9552H16.4034C16.8739 18.9552 17.2437 18.5666 17.2437 18.0721C17.2437 17.5776 16.8739 17.1891 16.4034 17.1891H12.8403C12.3697 17.1891 12 17.5953 12 18.0721V30.1169C12 30.6114 12.3697 30.9999 12.8403 30.9999H27.1597C27.6303 30.9999 28 30.6114 28 30.1169V18.0721C28 17.5953 27.6303 17.1891 27.1597 17.1891Z" fill="#888888"/>
<path d="M15.4286 15.0699C15.6471 15.0699 15.8656 14.9816 16.0168 14.8049L19.1429 11.52V22.3285C19.1429 22.823 19.5126 23.2115 19.9832 23.2115C20.4538 23.2115 20.8236 22.823 20.8236 22.3285V11.5024L23.8656 14.699C24.2017 15.0522 24.7227 15.0522 25.0589 14.699C25.395 14.3458 25.395 13.7983 25.0589 13.4451L20.6051 8.76491C20.2689 8.4117 19.7479 8.4117 19.4118 8.76491L14.8404 13.5687C14.5042 13.9219 14.5042 14.4694 14.8404 14.8226C15.0084 14.9992 15.2269 15.0699 15.4286 15.0699Z" fill="#888888"/>
</g>
<defs>
<clipPath id="clip0_221:24">
<rect width="16" height="22.5" fill="white" transform="translate(12 8.5)"/>
</clipPath>
</defs>
</svg>
