<svg width="40" height="40" viewBox="0 0 40 40" fill="none" xmlns="http://www.w3.org/2000/svg">
<path d="M20 40C31.0457 40 40 31.0457 40 20C40 8.95433 31.0457 0 20 0C8.95433 0 0 8.95433 0 20C0 31.0457 8.95433 40 20 40Z" fill="#01A2F3"/>
<path d="M10.6417 28.7833C12.4584 28.55 14.1167 27.9333 15.725 26.7C13.4667 26.3333 11.8917 25.2833 11.0584 23.175C11.6667 22.975 12.2667 23.25 12.9584 22.9C10.6584 21.9583 9.30836 20.3916 9.15836 17.8583C9.60836 17.975 9.99169 18.0666 10.375 18.1583C10.6084 18.2 10.9167 18.3833 10.8584 17.8916C9.05003 15.825 8.72503 13.8166 9.87503 11.55C10.275 11.7 10.4834 12.0666 10.75 12.3416C13.2334 14.9166 16.275 16.3416 19.8 16.825C20.4167 16.9083 20.65 16.8166 20.6 16.1C20.4334 13.8333 21.375 12.0916 23.3917 11.0583C25.4 10.0333 27.3667 10.275 29.1167 11.7166C29.525 12.05 29.8667 12.075 30.3417 11.9416C31.1334 11.725 31.8584 11.3333 32.775 10.9833C32.4667 12.1333 31.75 12.8166 30.975 13.55C31.85 13.6666 32.5084 13.2083 33.3334 13.1333C32.95 13.9833 32.325 14.525 31.7084 15.025C31.2084 15.4333 31.0084 15.85 31 16.5083C30.8917 23.725 25.8 29.7166 18.7 30.925C15.2084 31.5166 11.8584 30.95 8.76669 29.15C8.80836 28.6416 9.20836 28.8916 9.45003 28.8583C9.84169 28.8 10.25 28.9166 10.6417 28.7833Z" fill="#FEFEFE"/>
</svg>
