<svg width="40" height="40" viewBox="0 0 40 40" fill="none" xmlns="http://www.w3.org/2000/svg">
<path d="M20 40C31.0457 40 40 31.0457 40 20C40 8.95433 31.0457 0 20 0C8.95433 0 0 8.95433 0 20C0 31.0457 8.95433 40 20 40Z" fill="#F9E200"/>
<path d="M20.275 30.0666C19.425 29.9999 18.575 29.9249 17.725 29.8583C17.6333 29.8499 17.5333 29.8833 17.4583 29.9333C15.1417 31.3749 12.7 32.5416 10.125 33.4499C10.0833 33.4666 10.0333 33.4833 9.98334 33.4999C9.83334 33.5333 9.69167 33.5166 9.60001 33.3666C9.50834 33.2166 9.55001 33.0749 9.66667 32.9499C9.99167 32.5999 10.3333 32.2583 10.6333 31.8916C11.4917 30.8333 12.0667 29.6249 12.4417 28.3166C12.4833 28.1749 12.4333 28.1249 12.325 28.0583C11.1667 27.4083 10.125 26.6083 9.23334 25.6249C7.88338 24.1416 6.99172 22.4333 6.74172 20.4249C6.48338 18.2999 6.95838 16.3333 8.11667 14.5333C9.46667 12.4249 11.375 10.9916 13.6417 9.99161C15.15 9.32494 16.7333 8.93328 18.375 8.77494C21.625 8.47494 24.7167 8.99161 27.6 10.5499C29.5 11.5749 31.075 12.9749 32.1833 14.8499C33.1333 16.4666 33.55 18.2249 33.3917 20.0916C33.225 22.0583 32.4417 23.7666 31.175 25.2666C29.425 27.3333 27.1833 28.6166 24.6083 29.3749C23.1917 29.7916 21.75 29.9916 20.275 30.0666ZM26.55 19.1333C26.5333 19.1249 26.5083 19.1083 26.4917 19.0999C26.4917 18.4999 26.4917 17.8999 26.4917 17.2916C26.4917 16.8749 26.2167 16.5916 25.8333 16.5916C25.45 16.5916 25.175 16.8666 25.175 17.2749C25.175 19.0583 25.175 20.8416 25.175 22.6166C25.175 23.0249 25.4667 23.3083 25.85 23.2999C26.225 23.2916 26.4833 23.0083 26.4917 22.5999C26.4917 22.1249 26.4917 21.6583 26.4917 21.1833C26.4917 21.1083 26.5083 21.0249 26.55 20.9749C26.7 20.7916 26.8667 20.6333 27.0417 20.4416C27.1167 20.5333 27.1583 20.5916 27.2 20.6583C27.7583 21.4249 28.3167 22.1916 28.875 22.9583C29 23.1333 29.15 23.2749 29.375 23.2916C29.6583 23.3249 29.8833 23.2166 30.025 22.9749C30.175 22.7166 30.15 22.4583 29.975 22.2166C29.3583 21.3749 28.7417 20.5249 28.1167 19.6833C28.0167 19.5499 28.025 19.4749 28.1417 19.3583C28.6833 18.8333 29.2167 18.2999 29.7417 17.7583C29.85 17.6416 29.9417 17.4833 29.975 17.3333C30.0333 17.0499 29.8833 16.7833 29.6333 16.6583C29.375 16.5249 29.0667 16.5749 28.85 16.7916C28.225 17.4166 27.5917 18.0499 26.9667 18.6749C26.825 18.8249 26.6833 18.9749 26.55 19.1333ZM15.1583 23.2999C15.3917 23.2916 15.6 23.1583 15.7167 22.8833C15.8333 22.6166 15.9417 22.3499 16.05 22.0749C16.0917 21.9583 16.1583 21.9249 16.2833 21.9249C17 21.9333 17.7083 21.9333 18.425 21.9249C18.55 21.9249 18.6083 21.9749 18.65 22.0833C18.75 22.3499 18.8583 22.6083 18.975 22.8749C19.0833 23.1249 19.2667 23.2749 19.5417 23.2999C20.0583 23.3416 20.3833 22.8416 20.175 22.3249C19.45 20.5666 18.7167 18.8083 17.9917 17.0499C17.875 16.7666 17.675 16.5999 17.3667 16.5916C17.0667 16.5833 16.8583 16.7416 16.725 17.0583C16.425 17.7749 16.1333 18.4916 15.8333 19.2083C15.4 20.2583 14.9583 21.2999 14.525 22.3499C14.325 22.8249 14.6167 23.2999 15.1583 23.2999ZM13.3417 20.3749C13.3417 19.6249 13.35 18.8749 13.3333 18.1333C13.3333 17.9416 13.3917 17.8999 13.575 17.8999C13.9583 17.9166 14.3333 17.9166 14.7167 17.9083C15.1333 17.9083 15.4167 17.6249 15.4167 17.2416C15.4167 16.8583 15.1333 16.5916 14.7083 16.5916C13.3667 16.5916 12.0167 16.5916 10.675 16.5916C10.2417 16.5916 9.96667 16.8583 9.96667 17.2583C9.96667 17.6416 10.25 17.9083 10.675 17.9083C11.0417 17.9083 11.4083 17.9166 11.775 17.8999C11.9917 17.8916 12.0417 17.9666 12.0417 18.1666C12.0333 19.6249 12.0333 21.0749 12.0333 22.5333C12.0333 22.6583 12.0417 22.7999 12.0917 22.9166C12.2083 23.1999 12.525 23.3583 12.825 23.2916C13.1167 23.2249 13.3333 22.9749 13.3333 22.6666C13.35 21.8999 13.3417 21.1333 13.3417 20.3749ZM22.2 21.9833C22.2 21.8583 22.2 21.7666 22.2 21.6833C22.2 20.2416 22.2083 18.7999 22.2 17.3583C22.2 17.1999 22.1583 17.0249 22.0833 16.8833C21.9417 16.6249 21.625 16.5333 21.3333 16.6249C21.0583 16.7083 20.875 16.9583 20.875 17.2749C20.875 18.1833 20.875 19.0916 20.875 19.9999C20.875 20.8833 20.875 21.7583 20.875 22.6416C20.875 23.0416 21.1167 23.2999 21.4917 23.3083C22.3917 23.3166 23.2917 23.3166 24.1917 23.3083C24.575 23.3083 24.85 23.0249 24.85 22.6499C24.85 22.2749 24.575 21.9999 24.1917 21.9916C23.9417 21.9833 23.6917 21.9916 23.4417 21.9916C23.05 21.9833 22.6417 21.9833 22.2 21.9833Z" fill="#3B1E1E"/>
<path d="M18.0333 20.6083C17.5667 20.6083 17.1333 20.6083 16.6667 20.6083C16.8917 20.0666 17.1083 19.5416 17.35 18.9666C17.5917 19.5332 17.8083 20.0499 18.0333 20.6083Z" fill="#3B1E1E"/>
</svg>
