<svg width="40" height="40" viewBox="0 0 40 40" fill="none" xmlns="http://www.w3.org/2000/svg">
<path d="M20 40C31.0457 40 40 31.0457 40 20C40 8.95433 31.0457 0 20 0C8.95433 0 0 8.95433 0 20C0 31.0457 8.95433 40 20 40Z" fill="#F5F5F5"/>
<g clip-path="url(#clip0_192_124)">
<path d="M25.8521 9.99999C26.172 10.08 26.5068 10.1149 26.8166 10.2349C28.6907 10.9445 29.7752 12.2938 29.9801 14.2829C30.115 15.6072 29.7152 16.8016 28.7956 17.7811C27.3564 19.3103 25.8471 20.7746 24.3479 22.2539C23.5133 23.0785 22.4888 23.5032 21.2994 23.5632C19.9401 23.6332 18.8006 23.1784 17.8261 22.2589C17.2864 21.7491 17.2364 21.0095 17.6812 20.4398C18.111 19.885 18.9856 19.7751 19.5353 20.2199C19.8451 20.4698 20.14 20.7296 20.5448 20.8246C21.2544 20.9895 21.8941 20.8646 22.4238 20.3548C23.8481 18.9855 25.2374 17.5712 26.6317 16.1719C27.4263 15.3723 27.5063 14.2679 26.8516 13.4283C26.187 12.5837 24.8376 12.4438 24.043 13.1584C23.1685 13.948 22.3639 14.8076 21.5343 15.6422C21.3194 15.8621 21.1195 15.912 20.8396 15.7971C20.2049 15.5322 19.5303 15.4623 18.8556 15.4373C18.6807 15.4323 18.5308 15.4023 18.4558 15.2224C18.3809 15.0375 18.4658 14.8975 18.5957 14.7726C19.7302 13.6432 20.8546 12.5037 21.994 11.3793C22.7437 10.6397 23.6382 10.1749 24.6877 10.03C24.7277 10.025 24.7627 10.01 24.7976 9.995C25.1525 9.99999 25.5023 9.99999 25.8521 9.99999Z" fill="#888888"/>
<path d="M10 24.8376C10.08 24.4777 10.1399 24.1129 10.2599 23.7581C10.5047 23.0635 10.9045 22.4688 11.4193 21.949C12.7936 20.5697 14.1629 19.1904 15.5472 17.8211C16.4018 16.9765 17.4263 16.4917 18.6407 16.4268C20.02 16.3518 21.1944 16.8166 22.1839 17.7611C22.7186 18.2709 22.7336 19.0755 22.2439 19.6302C21.8141 20.1149 20.9895 20.1799 20.4448 19.7651C20.1849 19.5702 19.955 19.3353 19.6352 19.2304C18.8006 18.9505 18.066 19.1104 17.4463 19.7301C16.057 21.1094 14.6627 22.4887 13.2934 23.888C12.3188 24.8825 12.5287 26.3968 13.7031 27.0715C14.3828 27.4563 15.3523 27.3663 15.937 26.8516C16.7366 26.1369 17.4463 25.3273 18.2159 24.5777C18.2809 24.5127 18.3508 24.4528 18.4058 24.3828C18.6107 24.1279 18.8456 24.0829 19.1504 24.2079C19.7851 24.4628 20.4598 24.5377 21.1394 24.5627C21.3143 24.5677 21.4643 24.6077 21.5392 24.7826C21.6092 24.9525 21.5342 25.0874 21.4143 25.2024C20.1599 26.4418 18.9605 27.7361 17.6512 28.9205C16.8916 29.6102 15.957 29.95 14.9275 30C13.7931 30.06 12.7636 29.7501 11.8591 29.0655C10.8796 28.3208 10.2799 27.3413 10.065 26.1219C10.045 26.032 10.02 25.942 10 25.8521C10 25.5172 10 25.1774 10 24.8376Z" fill="#888888"/>
</g>
<defs>
<clipPath id="clip0_192_124">
<rect width="20.005" height="20" fill="white" transform="translate(10 10)"/>
</clipPath>
</defs>
</svg>
